<?xml version="1.0" encoding="UTF-8"?><svg id="Calque_2" xmlns="http://www.w3.org/2000/svg" viewBox="0 0 318.43 266.09"><g id="OBJECTS"><g style="opacity:.41;"><path d="M318.27,169.82c.3-5.2.17-10.42-.42-15.6-2.75-24.31-15.22-47.23-33.58-63.4-6.55-5.77-14-10.94-18.26-18.55-7.18-12.83-6.63-27.56-15.54-40.23-8.92-12.68-21.91-22.56-36.56-27.64-43.69-15.14-104.86,9.51-99.35,62.15.02.19.04.46.06.81.73,10.93-7.85,20.13-18.77,20.39-40.31.96-75.01,32.04-82.44,71.41-4.77,25.32,3.04,53.07,21.56,70.98,13.82,13.37,32.37,20.71,50.93,25.76,37.21,10.12,76.37,12.24,114.73,8.37,35.91-3.62,73.8-13.95,97.02-41.58,12.39-14.74,19.49-33.64,20.61-52.87Z" style="fill:#c5d9ff; stroke-width:0px;"/></g><g style="opacity:.88;"><path d="M285.12,172.3c.24-4.07.13-8.17-.33-12.22-2.16-19.04-11.93-37-26.3-49.66-5.13-4.52-10.97-8.57-14.3-14.53-5.62-10.05-5.2-21.59-12.17-31.51-6.99-9.93-17.16-17.68-28.64-21.65-34.23-11.86-82.15,7.45-77.83,48.69.02.15.03.36.05.64.57,8.57-6.15,15.77-14.71,15.97-31.58.75-58.76,25.1-64.58,55.94-3.74,19.83,2.38,41.57,16.89,55.61,10.83,10.47,25.36,16.23,39.9,20.18,29.15,7.93,59.82,9.59,89.88,6.56,28.13-2.84,57.81-10.93,76.01-32.57,9.71-11.55,15.27-26.35,16.14-41.42Z" style="fill:#c5d9ff; stroke-width:0px;"/></g><circle cx="299.76" cy="39.27" r="9.86" transform="translate(192.39 321.88) rotate(-76.66)" style="fill:#c5d9ff; opacity:.31; stroke-width:0px;"/><circle cx="83.23" cy="27.83" r="11.43" transform="translate(4.7 67) rotate(-45)" style="fill:#c5d9ff; opacity:.31; stroke-width:0px;"/><circle cx="14.76" cy="247.43" r="14.76" style="fill:#c5d9ff; opacity:.31; stroke-width:0px;"/><circle cx="124.37" cy="85.54" r="59.22" style="fill:#2ddaff; stroke-width:0px;"/><path d="M165.49,128.19c-.14,0-.29-.06-.4-.17-.22-.22-.22-.58,0-.8,11.08-11.08,17.18-25.81,17.18-41.48s-6.1-30.4-17.18-41.48c-11.08-11.08-25.81-17.18-41.48-17.18s-30.4,6.1-41.48,17.18c-.22.22-.58.22-.8,0-.22-.22-.22-.58,0-.8,11.29-11.29,26.31-17.51,42.28-17.51s30.99,6.22,42.28,17.51c11.29,11.29,17.51,26.31,17.51,42.28s-6.22,30.99-17.51,42.28c-.11.11-.26.17-.4.17Z" style="fill:#339; stroke-width:0px;"/><circle cx="124.37" cy="85.54" r="45.07" style="fill:#fff; stroke-width:0px;"/><path d="M124.37,131.17c-25.16,0-45.63-20.47-45.63-45.63s20.47-45.63,45.63-45.63c.31,0,.57.25.57.57s-.25.57-.57.57c-24.54,0-44.5,19.96-44.5,44.5s19.96,44.5,44.5,44.5c.31,0,.57.25.57.57s-.25.57-.57.57Z" style="fill:#339; stroke-width:0px;"/><path d="M136.05,94.15h-12.26c-2.51,0-4.56-2.05-4.56-4.56v-17c0-2.19,1.77-3.96,3.96-3.96s3.96,1.77,3.96,3.96v13.64h8.9c2.19,0,3.96,1.77,3.96,3.96s-1.77,3.96-3.96,3.96Z" style="fill:#339; stroke-width:0px;"/><path d="M234.98,249.14l-73.9-10.93c-8.36-1.24-14.13-9.01-12.89-17.37l26.5-179.18c1.24-8.36,9.01-14.13,17.37-12.89l73.9,10.93c8.36,1.24,14.13,9.01,12.89,17.37l-26.5,179.18c-1.24,8.36-9.01,14.13-17.37,12.89Z" style="fill:#339; stroke-width:0px;"/><rect x="128.3" y="90.51" width="171.05" height="92.75" transform="translate(47.13 328.38) rotate(-81.59)" style="fill:#ecf1f7; stroke-width:0px;"/><rect x="218.98" y="12.25" width="12.84" height="92.75" transform="translate(134.42 273.02) rotate(-81.59)" style="fill:#2ddaff; stroke-width:0px;"/><path d="M199.76,237.98c-.29,0-.58-.02-.88-.07-1.58-.23-2.98-1.07-3.93-2.35-.95-1.29-1.35-2.86-1.12-4.45.23-1.58,1.07-2.98,2.35-3.93,1.28-.95,2.87-1.35,4.44-1.11,1.58.23,2.98,1.07,3.93,2.35.95,1.28,1.35,2.86,1.12,4.45-.44,2.97-3,5.11-5.92,5.11ZM199.75,227c-1.06,0-2.09.34-2.96.98-1.07.79-1.77,1.96-1.96,3.28-.2,1.32.13,2.63.93,3.7.79,1.07,1.96,1.77,3.28,1.96,2.72.4,5.26-1.48,5.66-4.21.19-1.32-.14-2.63-.93-3.7-.79-1.07-1.96-1.77-3.28-1.96-.25-.04-.5-.05-.74-.05Z" style="fill:#ecf1f7; stroke-width:0px;"/><path d="M213.02,43.88c-.09,0-.19,0-.28-.02-.51-.08-.96-.34-1.26-.76-.31-.41-.43-.92-.36-1.43s.34-.96.76-1.26c.41-.31.92-.44,1.43-.36.51.07.96.34,1.26.76.31.41.43.92.36,1.43h0c-.14.96-.97,1.64-1.9,1.64ZM213.02,41.02c-.2,0-.39.06-.55.18-.2.15-.33.36-.36.61-.04.24.02.49.17.69.15.2.36.33.61.36.25.04.49-.03.69-.17.2-.15.33-.36.36-.61h0c.04-.25-.03-.49-.17-.69-.15-.2-.36-.33-.61-.36-.05,0-.09-.01-.14-.01Z" style="fill:#ecf1f7; stroke-width:0px;"/><path d="M242.82,48.28c-.1,0-.19,0-.29-.02l-23.41-3.46c-.51-.08-.96-.34-1.26-.76-.31-.41-.43-.92-.36-1.43s.34-.96.76-1.26c.41-.31.92-.43,1.43-.36l23.41,3.46c.51.08.96.34,1.26.76.31.41.43.92.36,1.43s-.34.96-.76,1.26c-.34.25-.73.38-1.14.38ZM219.41,41.97c-.45,0-.85.33-.92.79-.04.24.02.49.17.69.15.2.36.33.61.36l23.41,3.46c.5.08.98-.27,1.05-.78.04-.24-.02-.49-.17-.69-.15-.2-.36-.33-.61-.36l-23.41-3.46s-.09-.01-.14-.01Z" style="fill:#ecf1f7; stroke-width:0px;"/><path d="M247.56,176.5l-64-9.47c-1.04-.15-2.01.57-2.17,1.61l-2.46,16.6c-.15,1.04.57,2.01,1.61,2.17l54.72,8.09,5.64,7.78,1-6.79,2.64.39c1.04.15,2.01-.57,2.17-1.61l2.46-16.6c.15-1.04-.57-2.01-1.61-2.17Z" style="fill:#5252ee; stroke-width:0px;"/><path d="M235.27,196s-.05,0-.07,0l-54.72-8.09c-.64-.09-1.2-.43-1.58-.95-.38-.52-.54-1.15-.45-1.79l2.46-16.6c.19-1.31,1.42-2.24,2.73-2.03l14.79,2.19c.27.04.46.29.42.57-.04.27-.3.46-.57.42l-14.79-2.19c-.77-.11-1.48.42-1.6,1.19l-2.46,16.6c-.05.37.04.74.26,1.04.22.3.55.5.92.55l54.72,8.09c.27.04.46.29.42.57-.04.25-.25.43-.49.43Z" style="fill:#339; stroke-width:0px;"/><path d="M257.74,107.7l-64-9.47c-1.04-.15-2.01.57-2.17,1.61l-2.46,16.6c-.15,1.04.57,2.01,1.61,2.17l54.72,8.09,5.64,7.78,1-6.79,2.64.39c1.04.15,2.01-.57,2.17-1.61l2.46-16.6c.15-1.04-.57-2.01-1.61-2.17Z" style="fill:#5252ee; stroke-width:0px;"/><path d="M251.4,135.76l-6.23-8.6-54.51-8.06c-1.31-.19-2.22-1.42-2.03-2.73.04-.27.29-.45.57-.42.27.04.46.29.42.57-.06.37.04.74.26,1.04.22.3.55.5.92.55l54.93,8.12,5.04,6.95.9-6.07,3.14.46c.37.05.74-.04,1.04-.26.3-.22.5-.55.55-.92l1.63-11.05c.04-.27.29-.46.57-.42.27.04.46.29.42.57l-1.63,11.05c-.09.64-.43,1.2-.95,1.58-.52.38-1.15.54-1.79.45l-2.15-.32-1.11,7.51Z" style="fill:#339; stroke-width:0px;"/><path d="M176.73,129.09l64,9.47c1.04.15,1.76,1.12,1.61,2.17l-2.46,16.6c-.15,1.04-1.12,1.76-2.17,1.61l-54.72-8.09-7.65,5.81,1-6.79-2.64-.39c-1.04-.15-1.76-1.12-1.61-2.17l2.46-16.6c.15-1.04,1.12-1.76,2.17-1.61Z" style="fill:#2ddaff; stroke-width:0px;"/><path d="M238,159.46c-.12,0-.24,0-.36-.03l-34.16-5.05c-.27-.04-.46-.29-.42-.57.04-.27.29-.46.57-.42l34.16,5.05c.37.05.74-.04,1.04-.26.3-.22.5-.55.55-.92l2.46-16.6c.11-.77-.42-1.48-1.19-1.6-.27-.04-.46-.29-.42-.57.04-.27.29-.46.57-.42,1.31.19,2.22,1.42,2.03,2.73l-2.46,16.6c-.09.64-.43,1.2-.95,1.58-.42.31-.92.47-1.43.47Z" style="fill:#243762; stroke-width:0px;"/><rect x="194.59" y="167.33" width="15.74" height="92.75" transform="translate(-38.56 382.72) rotate(-81.59)" style="fill:#fff; stroke-width:0px;"/><path d="M171.28,208.95c-.45,3.05-3.29,5.15-6.34,4.7-3.05-.45-5.15-3.29-4.7-6.34.45-3.05,3.29-5.15,6.34-4.7,3.05.45,5.15,3.29,4.7,6.34Z" style="fill:#5252ee; stroke-width:0px;"/><path d="M238.95,224.07c-.24,0-.49-.02-.73-.05l-59.46-8.8c-1.31-.19-2.47-.89-3.27-1.96-.79-1.07-1.12-2.38-.93-3.69.4-2.71,2.94-4.6,5.65-4.19l59.46,8.79c2.71.4,4.6,2.93,4.19,5.65-.37,2.47-2.5,4.25-4.92,4.25ZM238.36,223.03c2.17.32,4.19-1.18,4.52-3.35.16-1.05-.11-2.1-.74-2.95-.63-.85-1.56-1.41-2.61-1.56l-59.46-8.8c-2.17-.32-4.19,1.18-4.51,3.35-.16,1.05.11,2.1.74,2.95.63.85,1.56,1.41,2.61,1.56l59.46,8.8Z" style="fill:#2ddaff; stroke-width:0px;"/><path d="M186.17,54.62c-.09,0-.19,0-.29-.02-1.07-.16-1.81-1.15-1.65-2.22.08-.52.35-.97.77-1.29.42-.31.94-.44,1.45-.36,1.07.16,1.81,1.15,1.65,2.22h0c-.14.97-.98,1.67-1.94,1.67ZM186.17,51.7c-.2,0-.4.06-.57.19-.21.15-.34.38-.38.63-.04.25.03.51.18.71.15.21.38.34.63.38.52.08,1.01-.28,1.09-.81h0c.04-.25-.03-.51-.18-.71-.15-.21-.38-.34-.63-.38-.05,0-.1-.01-.14-.01Z" style="fill:#fff; stroke-width:0px;"/><path d="M191.59,55.42c-.1,0-.19,0-.29-.02-1.07-.16-1.81-1.15-1.65-2.22.16-1.07,1.16-1.8,2.22-1.65.52.08.97.35,1.29.77.31.42.44.94.36,1.45-.08.52-.35.97-.77,1.29-.34.25-.75.39-1.16.39ZM191.58,52.5c-.47,0-.88.34-.95.82-.04.25.03.51.18.71.15.21.38.34.63.38.25.04.51-.03.71-.18.21-.15.34-.38.38-.63h0c.04-.25-.03-.51-.18-.71-.15-.21-.38-.34-.63-.38-.05,0-.09-.01-.14-.01Z" style="fill:#fff; stroke-width:0px;"/><path d="M196.89,56.2c-.09,0-.19,0-.29-.02-1.07-.16-1.81-1.16-1.65-2.22.16-1.07,1.16-1.81,2.22-1.65,1.07.16,1.81,1.16,1.65,2.22-.14.97-.98,1.67-1.94,1.67ZM196.89,53.29c-.2,0-.4.07-.57.19-.21.15-.34.38-.38.63-.04.25.03.51.18.71.15.21.38.34.63.38.52.07,1.01-.29,1.09-.81.08-.52-.29-1.01-.81-1.09-.05,0-.09-.01-.14-.01Z" style="fill:#fff; stroke-width:0px;"/><path d="M271.58,72.44s-.05,0-.07,0l-84.93-12.56c-.27-.04-.46-.29-.42-.57.04-.27.29-.46.57-.42l84.93,12.56c.27.04.46.29.42.57-.04.25-.25.43-.49.43Z" style="fill:#339; stroke-width:0px;"/><path d="M236.17,180.32s-.05,0-.07,0l-45.31-6.7c-.27-.04-.46-.29-.42-.57.04-.27.29-.47.57-.42l45.31,6.7c.27.04.46.29.42.57-.04.25-.25.43-.49.43Z" style="fill:#fff; stroke-width:0px;"/><path d="M209.35,181.88s-.05,0-.07,0l-19.29-2.85c-.27-.04-.46-.29-.42-.57.04-.27.29-.46.57-.42l19.29,2.85c.27.04.46.29.42.57-.04.25-.25.43-.49.43Z" style="fill:#fff; stroke-width:0px;"/><path d="M202.85,186.09s-.05,0-.07,0l-13.54-2c-.27-.04-.46-.29-.42-.57.04-.27.3-.46.57-.42l13.54,2c.27.04.46.29.42.57-.04.25-.25.43-.49.43Z" style="fill:#fff; stroke-width:0px;"/><path d="M235.37,185.73s-.05,0-.07,0l-19.93-2.95c-.27-.04-.46-.29-.42-.57.04-.27.29-.46.57-.42l19.93,2.95c.27.04.46.29.42.57-.04.25-.25.43-.49.43Z" style="fill:#fff; stroke-width:0px;"/><path d="M230.64,142.72s-.05,0-.07,0l-45.31-6.7c-.27-.04-.46-.29-.42-.57.04-.27.29-.47.57-.42l45.31,6.7c.27.04.46.29.42.57-.04.25-.25.43-.49.43Z" style="fill:#fff; stroke-width:0px;"/><path d="M203.81,144.28s-.05,0-.07,0l-19.29-2.85c-.27-.04-.46-.29-.42-.57.04-.27.29-.46.57-.42l19.29,2.85c.27.04.46.29.42.57-.04.25-.25.43-.49.43Z" style="fill:#fff; stroke-width:0px;"/><path d="M223.85,152.41s-.05,0-.08,0l-39.11-6.07c-.27-.04-.46-.3-.42-.57.04-.27.3-.46.57-.42l39.11,6.07c.27.04.46.3.42.57-.04.25-.25.42-.49.42Z" style="fill:#fff; stroke-width:0px;"/><path d="M229.84,148.13s-.05,0-.07,0l-19.93-2.95c-.27-.04-.46-.29-.42-.57.04-.27.29-.46.57-.42l19.93,2.95c.27.04.46.29.42.57-.04.25-.25.43-.49.43Z" style="fill:#fff; stroke-width:0px;"/><path d="M184.95,66.67l64,9.47c1.04.15,1.76,1.12,1.61,2.17l-2.46,16.6c-.15,1.04-1.12,1.76-2.17,1.61l-54.72-8.09-7.65,5.81,1-6.79-2.64-.39c-1.04-.15-1.76-1.12-1.61-2.17l2.46-16.6c.15-1.04,1.12-1.76,2.17-1.61Z" style="fill:#2ddaff; stroke-width:0px;"/><path d="M248.1,95.41s-.05,0-.07,0c-.27-.04-.46-.29-.42-.57l2.46-16.6c.06-.37-.04-.74-.26-1.04-.22-.3-.55-.5-.92-.55l-39.74-5.88c-.27-.04-.46-.29-.42-.57.04-.27.3-.46.57-.42l39.74,5.88c.64.09,1.2.43,1.58.95.38.52.54,1.15.45,1.79l-2.46,16.6c-.04.25-.25.43-.49.43Z" style="fill:#339; stroke-width:0px;"/><path d="M238.86,80.3s-.05,0-.07,0l-45.31-6.7c-.27-.04-.46-.29-.42-.57.04-.27.29-.46.57-.42l45.31,6.7c.27.04.46.29.42.57-.04.25-.25.43-.49.43Z" style="fill:#fff; stroke-width:0px;"/><path d="M212.03,81.86s-.05,0-.07,0l-19.29-2.85c-.27-.04-.46-.29-.42-.57.04-.27.29-.46.57-.42l19.29,2.85c.27.04.46.29.42.57-.04.25-.25.43-.49.43Z" style="fill:#fff; stroke-width:0px;"/><path d="M232.07,89.99s-.05,0-.08,0l-39.11-6.07c-.27-.04-.46-.3-.42-.57.04-.27.3-.46.57-.42l39.11,6.07c.27.04.46.3.42.57-.04.25-.25.42-.49.42Z" style="fill:#fff; stroke-width:0px;"/><path d="M238.06,85.71s-.05,0-.07,0l-19.93-2.95c-.27-.04-.46-.29-.42-.57.04-.27.29-.46.57-.42l19.93,2.95c.27.04.46.29.42.57-.04.25-.25.43-.49.43Z" style="fill:#fff; stroke-width:0px;"/><path d="M246.39,112.16s-.05,0-.07,0l-45.31-6.7c-.27-.04-.46-.29-.42-.57.04-.27.29-.46.57-.42l45.31,6.7c.27.04.46.29.42.57-.04.25-.25.43-.49.43Z" style="fill:#fff; stroke-width:0px;"/><path d="M219.56,113.71s-.05,0-.07,0l-19.29-2.85c-.27-.04-.46-.29-.42-.57.04-.27.3-.46.57-.42l19.29,2.85c.27.04.46.29.42.57-.04.25-.25.43-.49.43Z" style="fill:#fff; stroke-width:0px;"/><path d="M213.06,117.92s-.05,0-.07,0l-13.54-2c-.27-.04-.46-.29-.42-.57.04-.27.29-.46.57-.42l13.54,2c.27.04.46.29.42.57-.04.25-.25.43-.49.43Z" style="fill:#fff; stroke-width:0px;"/><path d="M245.59,117.56s-.05,0-.07,0l-19.93-2.95c-.27-.04-.46-.29-.42-.57.04-.27.29-.46.57-.42l19.93,2.95c.27.04.46.29.42.57-.04.25-.25.43-.49.43Z" style="fill:#fff; stroke-width:0px;"/><path d="M154.25,233.77l-102.65,11.57c-1.97.22-3.75-1.2-3.97-3.17l-7.41-65.76c-.01-.1.06-.2.17-.21l109.4-12.33c.1-.01.2.06.21.17l7.41,65.79c.22,1.96-1.19,3.73-3.15,3.95Z" style="fill:#2ddaff; stroke-width:0px;"/><path d="M51.19,245.86c-2.05,0-3.83-1.55-4.06-3.64l-7.41-65.76c-.04-.38.23-.72.61-.76l109.4-12.33c.38-.04.72.23.76.61l7.41,65.79c.12,1.08-.18,2.14-.86,2.99-.68.85-1.65,1.38-2.73,1.51l-102.66,11.57c-.15.02-.31.03-.46.03ZM40.74,176.65l7.37,65.46c.19,1.69,1.72,2.92,3.42,2.73l102.65-11.57.06.5-.06-.5c.81-.09,1.54-.5,2.06-1.14.51-.64.74-1.44.65-2.26l-7.38-65.48-108.78,12.26Z" style="fill:#339; stroke-width:0px;"/><path d="M149.44,233.77l-92.82,11.57c-1.97.22,28.76-39.2,28.54-41.17l-44.94-27.76c-.01-.1.06-.2.17-.21l109.4-12.33c.1-.01.2.06.21.17l-37.42,37.04c.22,1.96,38.84,32.48,36.88,32.7Z" style="fill:#243762; opacity:.29; stroke-width:0px;"/><path d="M40.38,176.19l45.24-44.74c2.7-2.68,6.88-3.15,10.11-1.15l53.77,33.39c.09.06.06.2-.05.21l-109.26,12.31" style="fill:#f7a9b4; stroke-width:0px;"/><path d="M40.25,176.71l-.08-.74-.14-.14.11-.11h0s.02-.01.02-.01l45.12-44.62c2.87-2.85,7.28-3.35,10.72-1.22l53.77,33.4c.22.14.33.4.28.65-.06.25-.27.45-.53.48l-109.26,12.31ZM91.4,129.56c-1.98,0-3.94.76-5.43,2.24l-44.21,43.73,106.53-12-52.83-32.81c-1.26-.78-2.67-1.16-4.06-1.16Z" style="fill:#243762; stroke-width:0px;"/><path d="M40.38,176.19l45.24-44.74c2.7-2.68,6.88-3.15,10.11-1.15l53.77,33.39c.09.06.06.2-.05.21l-109.26,12.31" style="fill:#5252ee; stroke-width:0px;"/><path d="M90.62,197.26l-34.01,47.31,92.82-10.46-43.68-38.56c-4.56-4.02-11.59-3.23-15.14,1.71Z" style="fill:#f7a9b4; stroke-width:0px;"/><path d="M55.55,245.2l34.66-48.23.41.29-.41-.29c1.77-2.47,4.52-4.08,7.54-4.42,3.02-.34,6.06.62,8.33,2.63l44.53,39.31-95.06,10.71ZM98.95,193.49c-.36,0-.73.02-1.09.06-2.74.31-5.23,1.77-6.84,4.01l-33.35,46.4,90.59-10.21-42.84-37.81c-1.79-1.58-4.1-2.45-6.47-2.45Z" style="fill:#339; stroke-width:0px;"/><path d="M45.9,143.78l71.5-8.06c4.69-.53,8.86,2.34,9.32,6.41l4.6,40.79-19.88,18.28-26.27,2.96-25.95-16.23-4.45-39.52-8.85-4.63Z" style="fill:#fff; stroke-width:0px;"/><path d="M85.04,204.68l-26.31-16.45-4.45-39.49-6.81-5.63,69.87-7.87c2.39-.27,4.72.29,6.58,1.57,1.88,1.29,3.05,3.17,3.29,5.29l4.62,41.04-20.19,18.56-26.61,3ZM59.67,187.63l25.6,16.01,25.94-2.92,19.58-17.99-4.57-40.54c-.21-1.82-1.22-3.45-2.86-4.57-1.66-1.14-3.76-1.64-5.9-1.4l-69.88,7.87,7.64,3.99,4.45,39.54Z" style="fill:#339; stroke-width:0px;"/><path d="M90.62,193.18l-34.01,51.4,92.82-10.46-43.68-42.64c-4.56-4.02-11.59-3.23-15.14,1.71Z" style="fill:#243762; opacity:.29; stroke-width:0px;"/><path d="M90.62,197.26l-34.01,47.31,92.82-10.46-43.68-38.56c-4.56-4.02-11.59-3.23-15.14,1.71Z" style="fill:#5252ee; stroke-width:0px;"/><path d="M55.55,245.2l34.66-48.23.41.29-.41-.29c1.77-2.47,4.52-4.08,7.54-4.42,3.02-.34,6.06.62,8.33,2.63l44.53,39.31-95.06,10.71ZM98.95,193.49c-.36,0-.73.02-1.09.06-2.74.31-5.23,1.77-6.84,4.01l-33.35,46.4,90.59-10.21-42.84-37.81c-1.79-1.58-4.1-2.45-6.47-2.45Z" style="fill:#339; stroke-width:0px;"/><path d="M93.91,207.74l-24.97,34.75,68.17-7.68-32.08-28.32c-3.35-2.95-8.51-2.37-11.12,1.25Z" style="fill:#2ddaff; stroke-width:0px;"/><line x1="40.42" y1="176.28" x2="85.16" y2="204.16" style="fill:#f7a9b4; stroke-width:0px;"/><rect x="62.29" y="163.87" width="1" height="52.71" transform="translate(-131.86 142.91) rotate(-58.07)" style="fill:#339; stroke-width:0px;"/><line x1="149.97" y1="163.94" x2="112.56" y2="201.07" style="fill:#f7a9b4; stroke-width:0px;"/><rect x="104.91" y="182.01" width="52.71" height="1" transform="translate(-90.48 145.5) rotate(-44.8)" style="fill:#339; stroke-width:0px;"/><path d="M56.73,166.62l-12.48,1.41-2.01-17.8c-.37-3.29,2-6.26,5.28-6.63l.57-.06c3.29-.37,6.26,2,6.63,5.28l2.01,17.8Z" style="fill:#ecf1f7; stroke-width:0px;"/><path d="M43.81,168.58l-2.06-18.3c-.19-1.72.29-3.42,1.38-4.78,1.08-1.36,2.63-2.21,4.35-2.4l.57-.06c1.73-.19,3.42.29,4.77,1.38,1.36,1.08,2.21,2.63,2.4,4.35l2.06,18.3-13.47,1.52ZM48.78,144c-.21,0-.42.01-.63.04l-.57.06c-1.46.16-2.76.89-3.68,2.03-.91,1.15-1.33,2.58-1.16,4.04l1.95,17.31,11.48-1.29-1.95-17.31c-.16-1.46-.89-2.76-2.03-3.68-.98-.78-2.18-1.2-3.41-1.2Z" style="fill:#339; stroke-width:0px;"/><path d="M65.2,157.35c-.25,0-.47-.19-.5-.44-.03-.27.17-.52.44-.55l51.81-5.84c.28-.03.52.17.55.44.03.27-.17.52-.44.55l-51.81,5.84s-.04,0-.06,0Z" style="fill:#339; stroke-width:0px;"/><path d="M67.19,174.96c-.25,0-.47-.19-.5-.44-.03-.27.17-.52.44-.55l51.8-5.84c.27-.03.52.17.55.44.03.27-.17.52-.44.55l-51.8,5.84s-.04,0-.06,0Z" style="fill:#339; stroke-width:0px;"/><path d="M66.18,166.06c-.25,0-.47-.19-.5-.44-.03-.27.17-.52.44-.55l22.39-2.52c.27-.03.52.17.55.44.03.27-.17.52-.44.55l-22.39,2.52s-.04,0-.06,0Z" style="fill:#339; stroke-width:0px;"/><path d="M94.43,162.87c-.25,0-.47-.19-.5-.44-.03-.27.17-.52.44-.55l23.56-2.65c.28-.03.52.17.55.44.03.27-.17.52-.44.55l-23.56,2.65s-.04,0-.06,0Z" style="fill:#339; stroke-width:0px;"/><path d="M68.31,184.95c-.25,0-.47-.19-.5-.44-.03-.27.17-.52.44-.55l22.39-2.52c.27-.03.52.17.55.44.03.27-.17.52-.44.55l-22.39,2.52s-.04,0-.06,0Z" style="fill:#339; stroke-width:0px;"/></g></svg>