<?xml version="1.0" encoding="UTF-8"?><svg id="Calque_1" xmlns="http://www.w3.org/2000/svg" viewBox="0 0 220.45 136.02"><path d="M29.09,130.85c-6.82,6.77-17.65,6.43-24.11.03-6.46-6.4-6.82-17.17,0-23.93,6.26-6.21,16.27-6.51,22.7-1.31l-2.31,2.29c-5.13-4.03-13.06-3.72-18.1,1.28-5.58,5.54-5.22,14.23,0,19.4,5.22,5.17,13.96,5.51,19.54-.03" style="fill:#2ddaff; stroke-width:0px;"/><path d="M27.83,118.92c0-9.06,7.34-16.92,17.07-16.92s17.59,8.07,16.99,17.56h-30.87c.2,7.12,6.1,13.17,13.88,13.17,6.26,0,11.53-4.19,13.08-9.53h3.43c-1.75,7.08-8.45,12.61-16.51,12.61-9.73,0-17.07-7.83-17.07-16.88ZM58.5,116.63c-.8-6.33-6.58-11.58-13.6-11.58s-12.68,5.22-13.64,11.58h27.24Z" style="fill:#2ddaff; stroke-width:0px;"/><path d="M65.55,102.59h4.9c12.32,0,17.9,7.43,17.9,16.29s-5.58,16.33-17.9,16.33h-4.9v-32.62ZM70.7,132.01c9.61,0,14.44-5.58,14.44-13.13s-4.83-13.09-14.44-13.09h-1.91v26.21h1.91Z" style="fill:#2ddaff; stroke-width:0px;"/><path d="M114.9,136.02c-8.65,0-15.71-7.38-15.71-16.45s7.06-16.41,15.71-16.41c5.86,0,11.05,3.52,13.84,8.68l-5.86,2.47c-1.75-2.74-4.75-4.95-7.98-4.95-5.18,0-9.37,4.78-9.37,10.2s4.19,10.25,9.37,10.25c3.23,0,6.22-2.26,7.98-5.04l5.86,2.47c-2.79,5.25-7.98,8.77-13.84,8.77Z" style="fill:#5252ee; stroke-width:0px;"/><path d="M132.76,102.59h5.98v32.82h-5.98v-32.82Z" style="fill:#5252ee; stroke-width:0px;"/><path d="M143.41,123.56c0-9.81,7.82-12.42,11.92-12.42,5.62,0,11.25,4.17,11.45,11.85,0,1.82-.12,3-.12,3h-17.31c.72,3.91,4.78,4.34,5.98,4.34,3.31,0,4.95-1.95,5.62-2.78l4.63,2.91c-.88,1.3-3.83,5.56-10.25,5.56-4.27,0-11.92-2.65-11.92-12.46ZM149.51,121.39h10.97c-.24-2.17-2.19-4.56-5.18-4.56-3.43,0-5.54,2.13-5.78,4.56Z" style="fill:#5252ee; stroke-width:0px;"/><path d="M188.23,133.03c-.92,1.35-3.55,2.91-6.66,2.91-6.94,0-11.01-5.6-11.01-12.46s4.07-12.46,11.01-12.46c3.19,0,5.54,1.39,6.66,3v-2.47h5.9v23.88h-5.9v-2.39ZM182.45,116.7c-3.79,0-6.02,2.87-6.02,6.77s2.35,6.73,6.02,6.73,6.02-2.56,6.02-6.73c0-3.95-2.31-6.77-6.02-6.77Z" style="fill:#5252ee; stroke-width:0px;"/><path d="M220.45,121.3v14.11h-6.1v-14.11c0-3.69-1.91-4.82-4.23-4.82-1.63,0-4.31,1.09-4.19,6.3v12.63h-5.94v-23.88h5.94v2.13c1.47-1.61,3.91-2.56,5.86-2.56,6.34,0,8.65,3.99,8.65,10.2Z" style="fill:#5252ee; stroke-width:0px;"/><path d="M64.71,51.92v5.66c0,6.75,5.37,12.81,12.78,12.81h22.62c1.51,2.15,3.68,3.8,6.23,4.67v19.54h5.11v-18.87h6.76v18.87h5.11v-19.54c2.54-.86,4.72-2.52,6.23-4.67h22.62c7.4,0,12.78-6.06,12.78-12.81v-5.66h-100.24ZM119.28,70.66h-8.9c-3.18,0-5.9-2-6.94-4.8h22.78c-1.04,2.8-3.76,4.8-6.94,4.8ZM159.84,57.58c0,4.53-3.97,7.75-7.67,7.75h-20.55c.11-.65.16-1.32.16-2,0-1.4-1.14-2.53-2.56-2.53h-28.8c-1.41,0-2.56,1.13-2.56,2.53,0,.68.06,1.35.16,2h-20.55c-5.27,0-7.67-4.57-7.67-7.75v-.6h90.02v.6Z" style="fill:#5252ee; stroke-width:0px;"/><path d="M99.61,8.81c-.94,0-1.7.73-1.7,1.63s.76,1.63,1.7,1.63c4.87,0,8.84,3.81,8.84,8.49,0,.9.76,1.63,1.7,1.63s1.7-.73,1.7-1.63c0-6.48-5.49-11.76-12.24-11.76Z" style="fill:#5252ee; stroke-width:0px;"/><path d="M155.42,32.1c0-.9-.76-1.63-1.7-1.63s-1.7.73-1.7,1.63c0,3.07-2.6,5.57-5.8,5.57-.94,0-1.7.73-1.7,1.63s.76,1.63,1.7,1.63c5.07,0,9.2-3.96,9.2-8.84Z" style="fill:#5252ee; stroke-width:0px;"/><path d="M69.81,48.95h96.03v-2.45c0-1.35-1.14-2.45-2.55-2.45h-3.91c2.98-2.93,4.82-6.93,4.82-11.34,0-8.96-7.59-16.25-16.92-16.25-3.69,0-7.2,1.13-10.08,3.2-2.04-3.64-6.04-6.07-10.6-6.07-2.25,0-4.38.59-6.22,1.65-1.83-8.68-9.84-15.23-19.41-15.23-10.09,0-18.44,7.28-19.65,16.67-8.51.92-15.14,7.87-15.14,16.28,0,4.24,1.67,8.16,4.49,11.1h-3.41c-1.41,0-2.55,1.1-2.55,2.45v2.45h5.1ZM83.24,21.47c.13,0,.26,0,.39,0,.7.03,1.37-.22,1.87-.69.5-.46.78-1.11.78-1.77,0-7.79,6.59-14.12,14.7-14.12s14.7,6.33,14.7,14.12c0,.6-.04,1.21-.12,1.8-.16,1.19.6,2.31,1.8,2.66,1.19.34,2.47-.19,3.02-1.27,1.18-2.3,3.56-3.73,6.22-3.73,3.54,0,6.5,2.54,6.89,5.92.11.99.84,1.81,1.83,2.09,1,.27,2.06-.05,2.71-.83,2.26-2.73,5.63-4.3,9.26-4.3,6.51,0,11.81,5.09,11.81,11.35s-5.3,11.34-11.81,11.34h-67.12c-5.24-1.33-8.88-5.86-8.88-11.1,0-6.33,5.36-11.48,11.95-11.48Z" style="fill:#5252ee; stroke-width:0px;"/></svg>